<svg xmlns="http://www.w3.org/2000/svg" width="40" height="40" fill="none" viewBox="0 0 40 40"><path fill="#FF7800" d="m34.941 26.47-2.706-5.176c-.647-.059-1.235-.412-1.647-.941l-5.294-6.941c-.588-.765-.647-1.706-.235-2.588.235-.53.647-.883 1.176-1.118l-.94-1.765c-.648-1.294-2.236-1.764-3.53-1.117l-1.588.823-1.236-2.353c-.47-.823-1.47-1.176-2.353-.706L8.471 8.824c-.824.47-1.177 1.47-.706 2.353l.47.882c-.176 0-.411-.059-.588-.059-4.118-.823-5.882-3.353-5.53-5.235.412-2.236 3.53-3.588 6.942-2.941 1.353.235 2.647.764 3.588 1.529l1.118-.588c-1.236-1-2.647-1.706-4.53-2.059-4.059-.765-7.764 1-8.294 3.882-.588 3.177 2.941 6 6.47 6.53.471.059.942.117 1.471.117l.118.236-1.588.823c-1.294.647-1.765 2.235-1.118 3.53L16 36.294c.706 1.294 2.294 1.765 3.53 1.118L33.881 30a2.596 2.596 0 0 0 1.06-3.53ZM15.353 12.06a1.76 1.76 0 0 1-1.706 0 4.64 4.64 0 0 0 .882-.706.569.569 0 0 0 0-.823c-.235-.236-.647-.236-.823 0-.235.235-.53.47-.882.647a1.849 1.849 0 0 1 .823-2.412c.882-.47 2.059-.118 2.53.764.411.942.058 2.06-.824 2.53Zm3.059 11.235a1.422 1.422 0 0 1-1.883-.588c-.352-.706-.117-1.53.589-1.882a1.422 1.422 0 0 1 1.882.588c.118.235.177.412.177.647 0 .47-.295 1-.765 1.235Zm2.294 6.235a.642.642 0 0 1-.53-.823l2.118-9.53a.642.642 0 0 1 .824-.529c.353.059.588.47.53.824L21.528 29c-.058.352-.411.646-.823.528Zm5.823-1.823a1.422 1.422 0 0 1-1.882-.588 1.422 1.422 0 0 1 .588-1.883 1.422 1.422 0 0 1 1.883.589c.353.647.059 1.529-.589 1.882Z"/><path fill="#FF7800" d="M37.824 10.647h-1V3.941a1.77 1.77 0 0 0-1.765-1.764h-5.177a1.77 1.77 0 0 0-1.764 1.764v6.706h-1c-1.06 0-1.647 1.235-1 2.059l5.294 6.941c.53.647 1.53.647 2 0l5.294-6.941a1.211 1.211 0 0 0-.882-2.059Z"/></svg>