<svg width="73" height="66" viewBox="0 0 73 66" fill="none" xmlns="http://www.w3.org/2000/svg">
<path d="M2.4398 55.4996C1.88666 54.9803 1.60664 54.1966 1.60664 53.1698V42.1677H49.3338V34.3723L26.8095 14.0613L25.9701 14.9915L48.0803 34.9292V40.9148H0.35376V53.1698C0.35376 54.5562 0.76721 55.6474 1.58221 56.4129C2.67033 57.434 4.1268 57.5192 4.56781 57.5192C4.64737 57.5192 4.69436 57.5167 4.69937 57.5161H11.277V56.2632L4.6599 56.2645C4.64487 56.2645 3.31807 56.324 2.4398 55.4996Z" fill="#3F3F3F"/>
<path d="M52.9089 56.2657H38.6054V57.5186H52.9089V56.2657Z" fill="#3F3F3F"/>
<path d="M72.2502 57.5186L72.2239 56.8671C71.4145 36.7816 67.9835 30.4145 65.2479 28.6103C64.0507 27.8204 63.0879 27.9569 62.7371 28.0478H55.5976V27.2516C55.5976 25.6805 54.8446 22.7099 51.9955 22.7099C51.0772 22.7099 50.3167 23.02 49.736 23.6307C49.1095 24.2898 48.822 25.1843 48.6917 25.9241L21.488 1.06516L21.4046 0.989365L21.3 0.947394C19.3011 0.138035 17.6253 0.146179 16.3186 0.973704C14.0828 2.38883 13.8698 5.66009 13.8617 5.79854L15.1127 5.87058C15.1139 5.84301 15.2906 3.10673 16.9883 2.03239C17.9141 1.44667 19.1714 1.45919 20.7268 2.06747L49.917 28.7412L49.8406 27.2202C49.84 27.2021 49.7754 25.4061 50.6431 24.494C50.9832 24.1363 51.4255 23.9628 51.9949 23.9628C54.3046 23.9628 54.3434 27.1188 54.3441 27.2516L54.3459 51.6789L55.4635 51.6645C55.5888 51.506 58.6132 47.8144 65.4038 50.6559L65.8875 49.5002C60.542 47.2632 57.1969 48.704 55.5963 49.8635V29.3H62.8267L63.0353 29.2643C63.0616 29.2562 63.7037 29.0595 64.6327 29.7078C66.6254 31.0979 70.0733 36.4013 70.9434 56.2663H66.4456C65.3838 54.4196 63.3955 53.1705 61.1165 53.1705C57.7268 53.1705 54.9692 55.9281 54.9692 59.3177C54.9692 62.7074 57.7268 65.465 61.1165 65.465C64.5062 65.465 67.2637 62.7074 67.2637 59.3177C67.2637 58.6919 67.1685 58.0886 66.9937 57.5192L72.2502 57.5186ZM61.1184 64.2108C58.4197 64.2108 56.224 62.0152 56.224 59.3165C56.224 56.6178 58.4197 54.4221 61.1184 54.4221C63.8171 54.4221 66.0127 56.6178 66.0127 59.3165C66.0127 62.0152 63.8164 64.2108 61.1184 64.2108Z" fill="#3F3F3F"/>
<path d="M30.8795 53.1699C27.4898 53.1699 24.7322 55.9274 24.7322 59.3171C24.7322 62.7068 27.4898 65.4644 30.8795 65.4644C34.2691 65.4644 37.0267 62.7068 37.0267 59.3171C37.0267 55.9274 34.2685 53.1699 30.8795 53.1699ZM30.8795 64.2108C28.1808 64.2108 25.9851 62.0152 25.9851 59.3165C25.9851 56.6178 28.1808 54.4221 30.8795 54.4221C33.5782 54.4221 35.7739 56.6178 35.7739 59.3165C35.7739 62.0152 33.5776 64.2108 30.8795 64.2108Z" fill="#3F3F3F"/>
<path d="M20.745 64.0054C19.4589 64.0492 18.2129 63.5681 17.2444 62.656C16.2785 61.7464 15.7266 60.538 15.6909 59.2532C15.6539 57.9189 16.1457 56.6572 17.0747 55.7019C18.0043 54.7466 19.2503 54.2198 20.5834 54.2198C21.7623 54.2198 22.9012 54.6451 23.7907 55.4169L24.6126 54.471C23.4957 53.5006 22.0649 52.9669 20.584 52.9669C18.9101 52.9669 17.3453 53.6278 16.1776 54.828C15.0106 56.0283 14.3929 57.6119 14.4399 59.2877C14.4844 60.9076 15.1759 62.428 16.3868 63.5681C17.5508 64.6638 19.0361 65.2601 20.5896 65.2601C20.6554 65.2601 20.7212 65.2595 20.787 65.257C22.2265 65.2106 23.6109 64.655 24.6847 63.6928L23.8484 62.76C22.9926 63.5261 21.8914 63.9684 20.745 64.0054Z" fill="#3F3F3F"/>
<path d="M12.5863 34.4024L13.7414 33.9169C13.0122 32.1823 12.6 30.6337 12.4804 29.1823C12.3087 27.0899 13.0924 25.267 14.5771 24.3054C15.6928 23.5838 17.012 23.5073 18.2461 24.0655V33.6425H19.499V24.0649C20.7331 23.5067 22.0524 23.5831 23.1681 24.3048C24.6527 25.2658 25.437 27.0887 25.2647 29.1816C25.1451 30.6337 24.7329 32.1829 24.0037 33.9163L25.1589 34.4017C25.9401 32.5443 26.3829 30.8705 26.5132 29.2844C26.7212 26.7623 25.7001 24.4514 23.849 23.253C22.5391 22.4048 20.9711 22.2332 19.499 22.7249V4.73798H18.2461V18.5027V22.7249C16.774 22.2338 15.2054 22.4054 13.8961 23.253C12.045 24.4514 11.0245 26.7623 11.2319 29.2844C11.3616 30.8692 11.8051 32.5437 12.5863 34.4024Z" fill="#3F3F3F"/>
</svg>
